/* XPM */
static char *_7b1ee48ad114745f7e721083f7f82b7vdwyppgRfii61dGh[] = {
/* columns rows colors chars-per-pixel */
"64 64 221 2 ",
"   c None",
".  c #2D255E",
"X  c #33296A",
"o  c #332B6C",
"O  c #332F6F",
"+  c #2C316A",
"@  c #3C2C77",
"#  c #2E3773",
"$  c #39367F",
"%  c #313A7A",
"&  c #373A80",
"*  c #423789",
"=  c #4E389B",
"-  c #790BA2",
";  c #6F1FAA",
":  c #7317A7",
">  c #7514A5",
",  c #7515A6",
"<  c #7219A8",
"1  c #7319A8",
"2  c #6F20AA",
"3  c #6E21AB",
"4  c #6E22AB",
"5  c #6E23AB",
"6  c #692BAE",
"7  c #692BAF",
"8  c #682EAF",
"9  c #672DB0",
"0  c #672EB0",
"q  c #672FB0",
"w  c #682CB0",
"e  c #6632B2",
"r  c #6436B4",
"t  c #6239B5",
"y  c #613BB5",
"u  c #623BB6",
"i  c #603EB6",
"p  c #623DB9",
"a  c #2D4A83",
"s  c #324283",
"d  c #3F4193",
"f  c #374D97",
"g  c #335198",
"h  c #177398",
"j  c #3B56A1",
"k  c #197EA5",
"l  c #1D78A9",
"z  c #47459E",
"x  c #444AA1",
"c  c #4D4BAD",
"v  c #5144AA",
"b  c #5E43B8",
"n  c #5E43B9",
"m  c #5E46BE",
"M  c #534FB9",
"N  c #544FBA",
"B  c #5A4BBD",
"V  c #4D50B1",
"C  c #4F50B6",
"Z  c #4D5DBF",
"A  c #5552BF",
"S  c #5752BF",
"D  c #5554BF",
"F  c #4361B7",
"G  c #4562BA",
"H  c #3F71C2",
"J  c #3F7CCD",
"K  c #3F7DCE",
"L  c #3F7DCF",
"P  c #3E7FCE",
"I  c #3F7FCF",
"U  c #3E7FD0",
"Y  c #5A4DC0",
"T  c #5653C1",
"R  c #5455C0",
"E  c #5851C1",
"W  c #5258C0",
"Q  c #5258C1",
"!  c #545BC7",
"~  c #565FCC",
"^  c #4E60C2",
"/  c #4E60C4",
"(  c #4B66C6",
")  c #4869C5",
"_  c #496AC7",
"`  c #476DC9",
"'  c #466FCA",
"]  c #4A6AC8",
"[  c #486CC9",
"{  c #4670CB",
"}  c #4671CB",
"|  c #4375CA",
" . c #4276CA",
".. c #4474CB",
"X. c #4377CD",
"o. c #4475CC",
"O. c #4575CD",
"+. c #4278CE",
"@. c #417ACE",
"#. c #407CCE",
"$. c #4A71D0",
"%. c #4E75DD",
"&. c #4E7FEB",
"*. c #5676E9",
"=. c #5C71E9",
"-. c #5379E9",
";. c #527AE9",
":. c #507FEC",
">. c #6268E7",
",. c #1A84AE",
"<. c #1C83B3",
"1. c #1999BF",
"2. c #2590CE",
"3. c #3E81D1",
"4. c #3C83D1",
"5. c #3B85D0",
"6. c #3B85D3",
"7. c #3A86D2",
"8. c #3C84D2",
"9. c #378CD4",
"0. c #368DD4",
"q. c #378DD4",
"w. c #378CD6",
"e. c #378ED6",
"r. c #388AD1",
"t. c #3B88D3",
"y. c #398AD4",
"u. c #398BD4",
"i. c #3989D6",
"p. c #388CD6",
"a. c #2C97DF",
"s. c #2F9BD9",
"d. c #2F9DDA",
"f. c #2D9FDC",
"g. c #3493D7",
"h. c #3494D7",
"j. c #3592D8",
"k. c #3692D9",
"l. c #3297D9",
"z. c #3695DB",
"x. c #3597DC",
"c. c #3199DA",
"v. c #3299DA",
"b. c #309CDB",
"n. c #19A9CF",
"m. c #1AA9CF",
"M. c #1CA9D2",
"N. c #19B4DA",
"B. c #24A0DA",
"V. c #2BA3DE",
"C. c #2DA2DD",
"Z. c #2DA3DF",
"A. c #2BA5DD",
"S. c #2BA6DF",
"D. c #3B8EE4",
"F. c #3890E1",
"G. c #319CE3",
"H. c #309EE6",
"J. c #3B91EA",
"K. c #3B95ED",
"L. c #3997EE",
"P. c #329AE8",
"I. c #349DF0",
"U. c #349DF1",
"Y. c #3A98F0",
"T. c #389AF2",
"R. c #1ABAE0",
"E. c #1FBBE8",
"W. c #1FBEE9",
"Q. c #1FBFE9",
"!. c #1EBFEA",
"~. c #29A0E2",
"^. c #2DA3E3",
"/. c #26AEE2",
"(. c #27AEE2",
"). c #27AEE3",
"_. c #27ADE4",
"`. c #2BA9E2",
"'. c #28ABE2",
"]. c #28ADE2",
"[. c #29ACE3",
"{. c #28AFE3",
"}. c #2EA1ED",
"|. c #2FA0EE",
" X c #22B1E3",
".X c #25B0E2",
"XX c #22B5E5",
"oX c #23B6E5",
"OX c #29B0E7",
"+X c #20BBE7",
"@X c #25B5E8",
"#X c #23BBEB",
"$X c #20BEEA",
"%X c #4685E8",
"&X c #4786EB",
"*X c #4D82EC",
"=X c #4887EE",
"-X c #4C84EC",
";X c #408DEB",
":X c #418DEB",
">X c #458AEE",
",X c #4888ED",
"<X c #18C1E5",
"1X c #19C3E7",
"2X c #1CC1EA",
"3X c #1CC3EB",
"4X c #1BC4EB",
"5X c #17CCED",
"6X c #17CCEE",
"7X c #15CFEF",
"8X c #16CEEF",
"9X c #19C9ED",
"0X c #18CAED",
"qX c #18CBEE",
"wX c #14D1EE",
"eX c #0FDBF4",
"rX c #0EDEF6",
"tX c #13D5F2",
"yX c #11D8F3",
"uX c #0CE1F7",
"iX c #0CE2F6",
/* pixels */
"                                                                                                                                ",
"                                                                                                                                ",
"                                                                                                                                ",
"                                                                                                                                ",
"                                                                                                                                ",
"                                                                                                                                ",
"                                                                                                                                ",
"                                                                                                                                ",
"                                                                                                                                ",
"                                                                                                                                ",
"                                                                                                                                ",
"                                                                                                                                ",
"                                                                                                                                ",
"                                                                                                                                ",
"                                                                                                                                ",
"                          0X                                                                        $X                          ",
"                          Q.0X                                                                    tX                            ",
"                            eX3X                                                                6X6X                            ",
"                            '.uX].                                                            3XuX                              ",
"                              6XyX).                                                        3XrXoX                              ",
"                              v.wX0X`.                                                    $X8X5X                                ",
"                                +X1.1Xk.                                                $XN.R.^.                                ",
"                                  m.h 1Xk.                                            @Xm.k Q.                                  ",
"                                  OX,.<.3Xe.                                        ]. Xl M.x.                                  ",
"                                    .X2.~.oXy.                                    A.].a.B.).                                    ",
"                                    v.^.|.H.).t.                                C.^.P.|._.                                      ",
"                                      C.F.U.  A.8.                            v.d.  P.G.s.                                      ",
"                                      y.e.J.K.  b.4.                        k.l.  Y.J.v.                                        ",
"                                        g.  :XK.  h.J                     y.t.  Y.:Xy.e.                                        ",
"                                        #.J   >X    p.+.                7.7.    &X  e.                                          ",
"                                          4.    -X    7...            U J     *X  +.J                                           ",
"                                          [ |   =X&.    3.{         +.#.    ;.&X  J                                             ",
"                                            O.    *.,X    | F     { O.    ;.*X  ) '                                             ",
"                                              )     >.      a s ] $.    %.=.    '                                               ",
"                                              ( W     C       j G       N     ^ /                                               ",
"                                                /     f +   ~ Z # &   O g     /                                                 ",
"                                                W R     $ V !     x z #     Q R                                                 ",
"                                                  T     c S         M z   E S                                                   ",
"                                                  Y v . *             X o B                                                     ",
"                                                    b @                 = m                                                     ",
"                                                    n y                 p                                                       ",
"                                                      r               u u                                                       ",
"                                                      y e             8                                                         ",
"                                                        8 u         0 e                                                         ",
"                                                          5         3                                                           ",
"                                                          5 w     3 0                                                           ",
"                                                            <     <                                                             ",
"                                                            < 1 , w                                                             ",
"                                                              - ,                                                               ",
"                                                              2                                                                 ",
"                                                                                                                                ",
"                                                                                                                                ",
"                                                                                                                                ",
"                                                                                                                                ",
"                                                                                                                                ",
"                                                                                                                                ",
"                                                                                                                                ",
"                                                                                                                                ",
"                                                                                                                                ",
"                                                                                                                                ",
"                                                                                                                                ",
"                                                                                                                                ",
"                                                                                                                                ",
"                                                                                                                                "
};
