/* XPM */
static char *_381e353bba54b3cae0c11e7d8b5a74fIt5W6Wg9rht3FjeU[] = {
/* columns rows colors chars-per-pixel */
"32 32 63 1 ",
"  c None",
". c #47358F",
"X c #4C3B9C",
"o c #6E22AB",
"O c #6C25AC",
"+ c #6C24AD",
"@ c #6731B0",
"# c #6337B4",
"$ c #6436B4",
"% c #3F4292",
"& c #394D95",
"* c #3D4B99",
"= c #4748A2",
"- c #4553AB",
"; c #5E41B6",
": c #5D44B9",
"> c #3E7ECE",
", c #3E7FD2",
"< c #5753C2",
"1 c #5853C3",
"2 c #4966C4",
"3 c #4968C5",
"4 c #4969C7",
"5 c #4F62C8",
"6 c #496CCA",
"7 c #4374C9",
"8 c #4674CD",
"9 c #427BD3",
"0 c #437CD8",
"q c #189BC1",
"w c #318DCE",
"e c #3E80D0",
"r c #388CD3",
"t c #388BD4",
"y c #3B8CDE",
"u c #388FDE",
"i c #2B9BD8",
"p c #2D9BDA",
"a c #2F9DDC",
"s c #2E9EDC",
"d c #3494D7",
"f c #3297D9",
"g c #19A0C7",
"h c #2BA1DC",
"j c #2AA5DC",
"k c #24ADDE",
"l c #3697E7",
"z c #339AE5",
"x c #339BE6",
"c c #339BE8",
"v c #18BDE0",
"b c #1FBDE9",
"n c #28A6E6",
"m c #29A6E7",
"M c #25B0E3",
"N c #4288E7",
"B c #4786EC",
"V c #4886EB",
"C c #408BE8",
"Z c #19C2E8",
"A c #1CC3EC",
"S c #1BC5EC",
"D c #17CEEF",
/* pixels */
"                                ",
"                                ",
"                                ",
"                                ",
"                                ",
"                                ",
"                                ",
"                                ",
"       D                b       ",
"       MA              Sa       ",
"        vj            kZ        ",
"        wqa          hg         ",
"         ind        fnp         ",
"          lzr      tcx          ",
"          ,Nu7    >yCe          ",
"           0B 6  8 V9           ",
"           3   &2   3           ",
"               -*  5            ",
"            < =  % 1            ",
"             .    X             ",
"             ;    :             ",
"              #  $              ",
"              @                 ",
"               o+               ",
"               +                ",
"                                ",
"                                ",
"                                ",
"                                ",
"                                ",
"                                ",
"                                "
};
